<mxfile host="app.diagrams.net" modified="2024-05-10T18:51:38.830Z" agent="Mozilla/5.0 (Windows NT 10.0; Win64; x64; rv:125.0) Gecko/20100101 Firefox/125.0" etag="WuDfS9CNUspvxXwmDW4K" version="24.3.1" type="device">
  <diagram name="Page-1" id="2YBvvXClWsGukQMizWep">
    <mxGraphModel dx="2140" dy="530" grid="1" gridSize="10" guides="1" tooltips="1" connect="1" arrows="1" fold="1" page="1" pageScale="1" pageWidth="850" pageHeight="1100" math="0" shadow="0">
      <root>
        <mxCell id="0" />
        <mxCell id="1" parent="0" />
        <mxCell id="nP1ERztoxgb9XHQ0hC90-38" value="" style="html=1;verticalAlign=bottom;endArrow=block;edgeStyle=elbowEdgeStyle;elbow=vertical;curved=0;rounded=0;" edge="1" parent="1" source="nP1ERztoxgb9XHQ0hC90-17" target="aM9ryv3xv72pqoxQDRHE-1">
          <mxGeometry relative="1" as="geometry">
            <mxPoint x="250" y="370" as="sourcePoint" />
            <Array as="points">
              <mxPoint x="40" y="390" />
            </Array>
            <mxPoint x="-120" y="454" as="targetPoint" />
          </mxGeometry>
        </mxCell>
        <mxCell id="aM9ryv3xv72pqoxQDRHE-1" value="User Page" style="shape=umlLifeline;perimeter=lifelinePerimeter;whiteSpace=wrap;html=1;container=0;dropTarget=0;collapsible=0;recursiveResize=0;outlineConnect=0;portConstraint=eastwest;newEdgeStyle={&quot;edgeStyle&quot;:&quot;elbowEdgeStyle&quot;,&quot;elbow&quot;:&quot;vertical&quot;,&quot;curved&quot;:0,&quot;rounded&quot;:0};" parent="1" vertex="1">
          <mxGeometry x="-250" y="40" width="100" height="1170" as="geometry" />
        </mxCell>
        <mxCell id="aM9ryv3xv72pqoxQDRHE-2" value="" style="html=1;points=[];perimeter=orthogonalPerimeter;outlineConnect=0;targetShapes=umlLifeline;portConstraint=eastwest;newEdgeStyle={&quot;edgeStyle&quot;:&quot;elbowEdgeStyle&quot;,&quot;elbow&quot;:&quot;vertical&quot;,&quot;curved&quot;:0,&quot;rounded&quot;:0};" parent="aM9ryv3xv72pqoxQDRHE-1" vertex="1">
          <mxGeometry x="45" y="70" width="10" height="1060" as="geometry" />
        </mxCell>
        <mxCell id="aM9ryv3xv72pqoxQDRHE-5" value="Share Notes" style="shape=umlLifeline;perimeter=lifelinePerimeter;whiteSpace=wrap;html=1;container=0;dropTarget=0;collapsible=0;recursiveResize=0;outlineConnect=0;portConstraint=eastwest;newEdgeStyle={&quot;edgeStyle&quot;:&quot;elbowEdgeStyle&quot;,&quot;elbow&quot;:&quot;vertical&quot;,&quot;curved&quot;:0,&quot;rounded&quot;:0};size=40;" parent="1" vertex="1">
          <mxGeometry x="100" y="40" width="100" height="300" as="geometry" />
        </mxCell>
        <mxCell id="aM9ryv3xv72pqoxQDRHE-6" value="" style="html=1;points=[];perimeter=orthogonalPerimeter;outlineConnect=0;targetShapes=umlLifeline;portConstraint=eastwest;newEdgeStyle={&quot;edgeStyle&quot;:&quot;elbowEdgeStyle&quot;,&quot;elbow&quot;:&quot;vertical&quot;,&quot;curved&quot;:0,&quot;rounded&quot;:0};" parent="aM9ryv3xv72pqoxQDRHE-5" vertex="1">
          <mxGeometry x="45" y="70" width="10" height="180" as="geometry" />
        </mxCell>
        <mxCell id="aM9ryv3xv72pqoxQDRHE-7" value="Select Info(Degree,subject,chp no,Format)" style="html=1;verticalAlign=bottom;endArrow=block;edgeStyle=elbowEdgeStyle;elbow=vertical;curved=0;rounded=0;" parent="1" source="aM9ryv3xv72pqoxQDRHE-2" edge="1">
          <mxGeometry relative="1" as="geometry">
            <mxPoint x="195" y="130" as="sourcePoint" />
            <Array as="points" />
            <mxPoint x="140" y="120" as="targetPoint" />
          </mxGeometry>
        </mxCell>
        <mxCell id="aM9ryv3xv72pqoxQDRHE-9" value="Check if Everything Selected();" style="html=1;verticalAlign=bottom;endArrow=block;edgeStyle=elbowEdgeStyle;elbow=vertical;curved=0;rounded=0;" parent="1" source="aM9ryv3xv72pqoxQDRHE-6" target="aM9ryv3xv72pqoxQDRHE-1" edge="1">
          <mxGeometry x="-0.1183" y="-10" relative="1" as="geometry">
            <mxPoint x="175" y="160" as="sourcePoint" />
            <Array as="points">
              <mxPoint x="130" y="160" />
            </Array>
            <mxPoint x="140" y="160" as="targetPoint" />
            <mxPoint as="offset" />
          </mxGeometry>
        </mxCell>
        <mxCell id="nP1ERztoxgb9XHQ0hC90-3" value="Request Failed()" style="html=1;verticalAlign=bottom;endArrow=block;curved=0;rounded=0;" edge="1" parent="1" source="aM9ryv3xv72pqoxQDRHE-5" target="aM9ryv3xv72pqoxQDRHE-1">
          <mxGeometry y="-9" width="80" relative="1" as="geometry">
            <mxPoint x="160" y="189.5" as="sourcePoint" />
            <mxPoint x="80" y="189.5" as="targetPoint" />
            <mxPoint as="offset" />
          </mxGeometry>
        </mxCell>
        <mxCell id="nP1ERztoxgb9XHQ0hC90-14" value="" style="edgeStyle=none;orthogonalLoop=1;jettySize=auto;html=1;rounded=0;" edge="1" parent="1" source="aM9ryv3xv72pqoxQDRHE-1" target="aM9ryv3xv72pqoxQDRHE-5">
          <mxGeometry width="100" relative="1" as="geometry">
            <mxPoint x="110" y="259" as="sourcePoint" />
            <mxPoint x="210" y="259" as="targetPoint" />
            <Array as="points">
              <mxPoint x="150" y="220" />
            </Array>
          </mxGeometry>
        </mxCell>
        <mxCell id="nP1ERztoxgb9XHQ0hC90-15" value="Request Aproved Upload();" style="text;html=1;align=center;verticalAlign=middle;resizable=0;points=[];autosize=1;strokeColor=none;fillColor=none;" vertex="1" parent="1">
          <mxGeometry x="-110" y="188" width="160" height="30" as="geometry" />
        </mxCell>
        <mxCell id="nP1ERztoxgb9XHQ0hC90-17" value="&lt;div&gt;Find Notes&lt;/div&gt;&lt;div&gt;&lt;br&gt;&lt;/div&gt;" style="shape=umlLifeline;perimeter=lifelinePerimeter;whiteSpace=wrap;html=1;container=0;dropTarget=0;collapsible=0;recursiveResize=0;outlineConnect=0;portConstraint=eastwest;newEdgeStyle={&quot;edgeStyle&quot;:&quot;elbowEdgeStyle&quot;,&quot;elbow&quot;:&quot;vertical&quot;,&quot;curved&quot;:0,&quot;rounded&quot;:0};size=70;" vertex="1" parent="1">
          <mxGeometry x="280" y="50" width="100" height="400" as="geometry" />
        </mxCell>
        <mxCell id="nP1ERztoxgb9XHQ0hC90-18" value="" style="html=1;points=[];perimeter=orthogonalPerimeter;outlineConnect=0;targetShapes=umlLifeline;portConstraint=eastwest;newEdgeStyle={&quot;edgeStyle&quot;:&quot;elbowEdgeStyle&quot;,&quot;elbow&quot;:&quot;vertical&quot;,&quot;curved&quot;:0,&quot;rounded&quot;:0};" vertex="1" parent="nP1ERztoxgb9XHQ0hC90-17">
          <mxGeometry x="45" y="250" width="10" height="170" as="geometry" />
        </mxCell>
        <mxCell id="nP1ERztoxgb9XHQ0hC90-19" value="&lt;div&gt;See Announcements&lt;/div&gt;&lt;div&gt;&lt;br&gt;&lt;/div&gt;" style="shape=umlLifeline;perimeter=lifelinePerimeter;whiteSpace=wrap;html=1;container=0;dropTarget=0;collapsible=0;recursiveResize=0;outlineConnect=0;portConstraint=eastwest;newEdgeStyle={&quot;edgeStyle&quot;:&quot;elbowEdgeStyle&quot;,&quot;elbow&quot;:&quot;vertical&quot;,&quot;curved&quot;:0,&quot;rounded&quot;:0};" vertex="1" parent="1">
          <mxGeometry x="390" y="310" width="110" height="430" as="geometry" />
        </mxCell>
        <mxCell id="nP1ERztoxgb9XHQ0hC90-20" value="" style="html=1;points=[];perimeter=orthogonalPerimeter;outlineConnect=0;targetShapes=umlLifeline;portConstraint=eastwest;newEdgeStyle={&quot;edgeStyle&quot;:&quot;elbowEdgeStyle&quot;,&quot;elbow&quot;:&quot;vertical&quot;,&quot;curved&quot;:0,&quot;rounded&quot;:0};" vertex="1" parent="nP1ERztoxgb9XHQ0hC90-19">
          <mxGeometry x="45" y="170" width="10" height="200" as="geometry" />
        </mxCell>
        <mxCell id="nP1ERztoxgb9XHQ0hC90-21" value="Search" style="shape=umlLifeline;perimeter=lifelinePerimeter;whiteSpace=wrap;html=1;container=0;dropTarget=0;collapsible=0;recursiveResize=0;outlineConnect=0;portConstraint=eastwest;newEdgeStyle={&quot;edgeStyle&quot;:&quot;elbowEdgeStyle&quot;,&quot;elbow&quot;:&quot;vertical&quot;,&quot;curved&quot;:0,&quot;rounded&quot;:0};" vertex="1" parent="1">
          <mxGeometry x="510" y="650" width="100" height="300" as="geometry" />
        </mxCell>
        <mxCell id="nP1ERztoxgb9XHQ0hC90-22" value="" style="html=1;points=[];perimeter=orthogonalPerimeter;outlineConnect=0;targetShapes=umlLifeline;portConstraint=eastwest;newEdgeStyle={&quot;edgeStyle&quot;:&quot;elbowEdgeStyle&quot;,&quot;elbow&quot;:&quot;vertical&quot;,&quot;curved&quot;:0,&quot;rounded&quot;:0};" vertex="1" parent="nP1ERztoxgb9XHQ0hC90-21">
          <mxGeometry x="45" y="70" width="10" height="190" as="geometry" />
        </mxCell>
        <mxCell id="nP1ERztoxgb9XHQ0hC90-30" value="" style="html=1;verticalAlign=bottom;endArrow=block;edgeStyle=elbowEdgeStyle;elbow=vertical;curved=0;rounded=0;" edge="1" parent="1" source="aM9ryv3xv72pqoxQDRHE-1">
          <mxGeometry relative="1" as="geometry">
            <mxPoint x="200" y="330" as="sourcePoint" />
            <Array as="points" />
            <mxPoint x="320" y="330" as="targetPoint" />
          </mxGeometry>
        </mxCell>
        <mxCell id="nP1ERztoxgb9XHQ0hC90-33" value="" style="html=1;verticalAlign=bottom;endArrow=block;edgeStyle=elbowEdgeStyle;elbow=horizontal;curved=0;rounded=0;" edge="1" parent="1">
          <mxGeometry relative="1" as="geometry">
            <mxPoint x="-200" y="595" as="sourcePoint" />
            <Array as="points" />
            <mxPoint x="440" y="595" as="targetPoint" />
          </mxGeometry>
        </mxCell>
        <mxCell id="nP1ERztoxgb9XHQ0hC90-34" value="" style="html=1;verticalAlign=bottom;endArrow=block;edgeStyle=elbowEdgeStyle;elbow=vertical;curved=0;rounded=0;" edge="1" parent="1" source="aM9ryv3xv72pqoxQDRHE-1" target="nP1ERztoxgb9XHQ0hC90-57">
          <mxGeometry relative="1" as="geometry">
            <mxPoint x="300" y="1020" as="sourcePoint" />
            <Array as="points" />
            <mxPoint x="420" y="1020" as="targetPoint" />
          </mxGeometry>
        </mxCell>
        <mxCell id="nP1ERztoxgb9XHQ0hC90-35" value="" style="html=1;verticalAlign=bottom;endArrow=block;edgeStyle=elbowEdgeStyle;elbow=vertical;curved=0;rounded=0;" edge="1" parent="1" source="aM9ryv3xv72pqoxQDRHE-1" target="nP1ERztoxgb9XHQ0hC90-19">
          <mxGeometry relative="1" as="geometry">
            <mxPoint x="130" y="550" as="sourcePoint" />
            <Array as="points" />
            <mxPoint x="250" y="550" as="targetPoint" />
          </mxGeometry>
        </mxCell>
        <mxCell id="nP1ERztoxgb9XHQ0hC90-36" value="" style="html=1;verticalAlign=bottom;endArrow=block;edgeStyle=elbowEdgeStyle;elbow=vertical;curved=0;rounded=0;" edge="1" parent="1" target="nP1ERztoxgb9XHQ0hC90-17">
          <mxGeometry relative="1" as="geometry">
            <mxPoint x="-200" y="440" as="sourcePoint" />
            <Array as="points" />
            <mxPoint x="259.5" y="440" as="targetPoint" />
          </mxGeometry>
        </mxCell>
        <mxCell id="nP1ERztoxgb9XHQ0hC90-37" value="Select info(Degree, sub,chp no)" style="text;html=1;align=center;verticalAlign=middle;resizable=0;points=[];autosize=1;strokeColor=none;fillColor=none;" vertex="1" parent="1">
          <mxGeometry x="-75" y="298" width="190" height="30" as="geometry" />
        </mxCell>
        <mxCell id="nP1ERztoxgb9XHQ0hC90-39" value="" style="html=1;verticalAlign=bottom;endArrow=block;edgeStyle=elbowEdgeStyle;elbow=vertical;curved=0;rounded=0;" edge="1" parent="1" source="nP1ERztoxgb9XHQ0hC90-19" target="aM9ryv3xv72pqoxQDRHE-1">
          <mxGeometry relative="1" as="geometry">
            <mxPoint x="280" y="630" as="sourcePoint" />
            <Array as="points">
              <mxPoint x="210" y="640" />
            </Array>
            <mxPoint x="160" y="630" as="targetPoint" />
          </mxGeometry>
        </mxCell>
        <mxCell id="nP1ERztoxgb9XHQ0hC90-40" value="" style="html=1;verticalAlign=bottom;endArrow=block;edgeStyle=elbowEdgeStyle;elbow=vertical;curved=0;rounded=0;" edge="1" parent="1" source="nP1ERztoxgb9XHQ0hC90-57" target="aM9ryv3xv72pqoxQDRHE-1">
          <mxGeometry relative="1" as="geometry">
            <mxPoint x="380" y="1100" as="sourcePoint" />
            <Array as="points">
              <mxPoint x="320" y="1070" />
            </Array>
            <mxPoint x="50" y="1070" as="targetPoint" />
          </mxGeometry>
        </mxCell>
        <mxCell id="nP1ERztoxgb9XHQ0hC90-41" value="" style="html=1;verticalAlign=bottom;endArrow=block;edgeStyle=elbowEdgeStyle;elbow=vertical;curved=0;rounded=0;" edge="1" parent="1" target="aM9ryv3xv72pqoxQDRHE-1">
          <mxGeometry relative="1" as="geometry">
            <mxPoint x="560" y="820" as="sourcePoint" />
            <Array as="points" />
            <mxPoint x="440" y="820" as="targetPoint" />
          </mxGeometry>
        </mxCell>
        <mxCell id="nP1ERztoxgb9XHQ0hC90-42" value="Show Notes" style="text;html=1;align=center;verticalAlign=middle;resizable=0;points=[];autosize=1;strokeColor=none;fillColor=none;" vertex="1" parent="1">
          <mxGeometry x="-5" y="348" width="90" height="30" as="geometry" />
        </mxCell>
        <mxCell id="nP1ERztoxgb9XHQ0hC90-43" value="Error_Everything_notSelected();" style="text;html=1;align=center;verticalAlign=middle;resizable=0;points=[];autosize=1;strokeColor=none;fillColor=none;" vertex="1" parent="1">
          <mxGeometry x="-45" y="398" width="190" height="30" as="geometry" />
        </mxCell>
        <mxCell id="nP1ERztoxgb9XHQ0hC90-44" value="Directed_To_Announcements()" style="text;html=1;align=center;verticalAlign=middle;resizable=0;points=[];autosize=1;strokeColor=none;fillColor=none;" vertex="1" parent="1">
          <mxGeometry x="65" y="488" width="190" height="30" as="geometry" />
        </mxCell>
        <mxCell id="nP1ERztoxgb9XHQ0hC90-46" value="Enter_Announcement_Detail()" style="text;html=1;align=center;verticalAlign=middle;resizable=0;points=[];autosize=1;strokeColor=none;fillColor=none;" vertex="1" parent="1">
          <mxGeometry x="40" y="548" width="180" height="30" as="geometry" />
        </mxCell>
        <mxCell id="nP1ERztoxgb9XHQ0hC90-47" value="" style="html=1;verticalAlign=bottom;endArrow=block;edgeStyle=elbowEdgeStyle;elbow=vertical;curved=0;rounded=0;" edge="1" parent="1" source="aM9ryv3xv72pqoxQDRHE-1">
          <mxGeometry relative="1" as="geometry">
            <mxPoint x="425" y="890" as="sourcePoint" />
            <Array as="points" />
            <mxPoint x="545" y="890" as="targetPoint" />
          </mxGeometry>
        </mxCell>
        <mxCell id="nP1ERztoxgb9XHQ0hC90-48" value="" style="html=1;verticalAlign=bottom;endArrow=block;edgeStyle=elbowEdgeStyle;elbow=vertical;curved=0;rounded=0;" edge="1" parent="1" target="nP1ERztoxgb9XHQ0hC90-21">
          <mxGeometry relative="1" as="geometry">
            <mxPoint x="-195" y="780" as="sourcePoint" />
            <Array as="points" />
            <mxPoint x="-75" y="780" as="targetPoint" />
          </mxGeometry>
        </mxCell>
        <mxCell id="nP1ERztoxgb9XHQ0hC90-49" value="" style="html=1;verticalAlign=bottom;endArrow=block;edgeStyle=elbowEdgeStyle;elbow=vertical;curved=0;rounded=0;" edge="1" parent="1" source="aM9ryv3xv72pqoxQDRHE-1" target="nP1ERztoxgb9XHQ0hC90-21">
          <mxGeometry relative="1" as="geometry">
            <mxPoint x="-140" y="860" as="sourcePoint" />
            <Array as="points">
              <mxPoint x="70" y="860" />
            </Array>
            <mxPoint x="265" y="860" as="targetPoint" />
          </mxGeometry>
        </mxCell>
        <mxCell id="nP1ERztoxgb9XHQ0hC90-52" value="System_Validates_Save_Announcements()" style="text;html=1;align=center;verticalAlign=middle;resizable=0;points=[];autosize=1;strokeColor=none;fillColor=none;" vertex="1" parent="1">
          <mxGeometry x="-5" y="608" width="250" height="30" as="geometry" />
        </mxCell>
        <mxCell id="nP1ERztoxgb9XHQ0hC90-53" value="Search Account()" style="text;html=1;align=center;verticalAlign=middle;resizable=0;points=[];autosize=1;strokeColor=none;fillColor=none;" vertex="1" parent="1">
          <mxGeometry x="115" y="728" width="110" height="30" as="geometry" />
        </mxCell>
        <mxCell id="nP1ERztoxgb9XHQ0hC90-54" value="Check_ ValidAccount()" style="text;html=1;align=center;verticalAlign=middle;resizable=0;points=[];autosize=1;strokeColor=none;fillColor=none;" vertex="1" parent="1">
          <mxGeometry x="110" y="788" width="140" height="30" as="geometry" />
        </mxCell>
        <mxCell id="nP1ERztoxgb9XHQ0hC90-55" value="Shows_Account();" style="text;html=1;align=center;verticalAlign=middle;resizable=0;points=[];autosize=1;strokeColor=none;fillColor=none;" vertex="1" parent="1">
          <mxGeometry x="120" y="818" width="120" height="30" as="geometry" />
        </mxCell>
        <mxCell id="nP1ERztoxgb9XHQ0hC90-56" value="Send_Message();" style="text;html=1;align=center;verticalAlign=middle;resizable=0;points=[];autosize=1;strokeColor=none;fillColor=none;" vertex="1" parent="1">
          <mxGeometry x="90" y="858" width="120" height="30" as="geometry" />
        </mxCell>
        <mxCell id="nP1ERztoxgb9XHQ0hC90-57" value="Messages" style="shape=umlLifeline;perimeter=lifelinePerimeter;whiteSpace=wrap;html=1;container=0;dropTarget=0;collapsible=0;recursiveResize=0;outlineConnect=0;portConstraint=eastwest;newEdgeStyle={&quot;edgeStyle&quot;:&quot;elbowEdgeStyle&quot;,&quot;elbow&quot;:&quot;vertical&quot;,&quot;curved&quot;:0,&quot;rounded&quot;:0};" vertex="1" parent="1">
          <mxGeometry x="690" y="870" width="100" height="300" as="geometry" />
        </mxCell>
        <mxCell id="nP1ERztoxgb9XHQ0hC90-58" value="" style="html=1;points=[];perimeter=orthogonalPerimeter;outlineConnect=0;targetShapes=umlLifeline;portConstraint=eastwest;newEdgeStyle={&quot;edgeStyle&quot;:&quot;elbowEdgeStyle&quot;,&quot;elbow&quot;:&quot;vertical&quot;,&quot;curved&quot;:0,&quot;rounded&quot;:0};" vertex="1" parent="nP1ERztoxgb9XHQ0hC90-57">
          <mxGeometry x="45" y="70" width="10" height="190" as="geometry" />
        </mxCell>
        <mxCell id="nP1ERztoxgb9XHQ0hC90-61" value="Send_Message()" style="text;html=1;align=center;verticalAlign=middle;resizable=0;points=[];autosize=1;strokeColor=none;fillColor=none;" vertex="1" parent="1">
          <mxGeometry x="205" y="978" width="110" height="30" as="geometry" />
        </mxCell>
        <mxCell id="nP1ERztoxgb9XHQ0hC90-62" value="Receive_Message()" style="text;html=1;align=center;verticalAlign=middle;resizable=0;points=[];autosize=1;strokeColor=none;fillColor=none;" vertex="1" parent="1">
          <mxGeometry x="235" y="1028" width="130" height="30" as="geometry" />
        </mxCell>
      </root>
    </mxGraphModel>
  </diagram>
</mxfile>
